PathFileType	4	(X/Y/Z)	/Users/itak/Documents/Research/Walk-IL/dataset/trc/00113_00007.trc
DataRate	CameraRate	NumFrames	NumMarkers	Units	OrigDataRate	OrigDataStartFrame	OrigNumFrames
100.000000	100.000000	4	53	mm	100.000000	434	579
Frame#	Time	RPSI			LPSI			L3			STRN			T10			C7			CLAV			RBAK			LBAK			LSHO			LUPA			LAEL			LAOL			LWTS			LWPS			LFRA			LIFD			LHPS			LHTS			RSHO			RUPA			RAEL			RAOL			RWTS			RWPS			RFRA			RIFD			RHTS			RHPS			RBHD			LFHD			RFHD			LBHD			LHIP			RHIP			RASI			LASI			LKNE			LTHI			LANK			LTIP			LTOE			LMT1			LMT5			LHEE			RKNE			RTHI			RANK			RTIP			RTOE			RMT1			RMT5			RHEE			
		X1	Y1	Z1	X2	Y2	Z2	X3	Y3	Z3	X4	Y4	Z4	X5	Y5	Z5	X6	Y6	Z6	X7	Y7	Z7	X8	Y8	Z8	X9	Y9	Z9	X10	Y10	Z10	X11	Y11	Z11	X12	Y12	Z12	X13	Y13	Z13	X14	Y14	Z14	X15	Y15	Z15	X16	Y16	Z16	X17	Y17	Z17	X18	Y18	Z18	X19	Y19	Z19	X20	Y20	Z20	X21	Y21	Z21	X22	Y22	Z22	X23	Y23	Z23	X24	Y24	Z24	X25	Y25	Z25	X26	Y26	Z26	X27	Y27	Z27	X28	Y28	Z28	X29	Y29	Z29	X30	Y30	Z30	X31	Y31	Z31	X32	Y32	Z32	X33	Y33	Z33	X34	Y34	Z34	X35	Y35	Z35	X36	Y36	Z36	X37	Y37	Z37	X38	Y38	Z38	X39	Y39	Z39	X40	Y40	Z40	X41	Y41	Z41	X42	Y42	Z42	X43	Y43	Z43	X44	Y44	Z44	X45	Y45	Z45	X46	Y46	Z46	X47	Y47	Z47	X48	Y48	Z48	X49	Y49	Z49	X50	Y50	Z50	X51	Y51	Z51	X52	Y52	Z52	X53	Y53	Z53	

435	4.34	-1397.785400390625	1124.8359375	-220.6811981201172	-1381.658325195312	1131.8359375	-354.7997741699219	-1394.59228515625	1172.0078125	-289.6992797851562	-1145.163696289062	1349.187866210938	-268.78515625	-1401.326904296875	1327.587646484375	-287.6908264160156	-1326.107421875	1612.846923828125	-308.7843627929688	-1160.367309570312	1487.872680664062	-282.6211853027344	-1410.344116210938	1443.041870117188	-216.7705535888672	-1329.841552734375	1589.758911132812	-409.8363037109375	-1241.7099609375	1561.638793945312	-470.8416137695312	-1271.873901367188	1431.643798828125	-537.8880004882812	-1280.80419921875	1212.945434570312	-557.6171875	-1349.728515625	1207.433227539062	-503.902099609375	-1201.033813476562	950.1334838867188	-506.0092468261719	-1283.079467773438	929.8021240234375	-536.4000854492188	-1272.96484375	1095.848388671875	-559.6906127929688	-1206.350708007812	756.7841796875	-481.1432800292969	-1258.77001953125	853.13916015625	-535.565185546875	-1192.094116210938	859.1524047851562	-515.4921875	-1284.434814453125	1597.767456054688	-123.0202178955078	-1311.938110351562	1529.482788085938	-57.25655746459961	-1350.420654296875	1236.999267578125	-23.92667198181152	-1355.06689453125	1232.859619140625	-121.0350875854492	-1221.891235351562	985.8367919921875	-23.2283878326416	-1298.132568359375	974.4053344726562	6.717969417572021	-1333.0830078125	1162.791625976562	-4.825956344604492	-1209.216186523438	789.750244140625	-32.07641220092773	-1198.733154296875	876.0501098632812	-12.29366207122803	-1268.23486328125	873.4765625	17.15527725219727	-1268.37158203125	1783.159057617188	-235.5550689697266	-1108.82373046875	1823.106689453125	-382.3109130859375	-1100.780639648438	1839.720825195312	-253.6652679443359	-1283.463134765625	1770.56201171875	-369.2625732421875	-1276.049438476562	1046.099731445312	-454.8023071289062	-1290.912475585938	1021.715209960938	-89.94347381591797	-1198.6630859375	1093.57568359375	-130.2546997070312	-1173.595825195312	1103.1474609375	-394.4113464355469	-1085.197021484375	572.0237426757812	-426.7768859863281	-1160.829345703125	704.42919921875	-456.4063415527344	-1166.653686523438	54.96465301513672	-438.7385864257812	-1170.439819335938	313.2778930664062	-458.1513977050781	-938.8350219726562	86.06913757324219	-406.5427551269531	-1011.376953125	76.22697448730469	-362.7095642089844	-1046.128051757812	63.86970520019531	-472.7430114746094	-1228.896118164062	49.13559722900391	-369.3311462402344	-1304.206176757812	528.310791015625	-148.5911865234375	-1274.961181640625	806.57763671875	-104.8943099975586	-1438.4375	28.61591339111328	-208.9197998046875	-1339.637451171875	394.6184692382812	-148.9183654785156	-1201.770263671875	43.47153854370117	-231.9300994873047	-1255.56201171875	31.96770286560059	-279.720703125	-1306.88671875	40.41390228271484	-170.5995941162109	-1489.698120117188	33.3192024230957	-265.7100830078125	
436	4.350000000000001	-1401.460571289062	1124.994140625	-220.6933288574219	-1384.82421875	1132.08935546875	-354.7610473632812	-1398.07421875	1172.261108398438	-289.68603515625	-1148.888427734375	1349.673706054688	-267.8199157714844	-1404.872924804688	1327.765625	-287.4775085449219	-1330.022094726562	1613.1591796875	-308.3981323242188	-1164.2294921875	1488.338500976562	-281.7374572753906	-1414.36279296875	1443.303833007812	-216.5997619628906	-1333.425903320312	1589.965454101562	-409.4313354492188	-1245.124389648438	1561.857543945312	-470.18408203125	-1275.14404296875	1431.879028320312	-537.3378295898438	-1284.229736328125	1213.18994140625	-557.3262329101562	-1353.455444335938	1207.752685546875	-504.0016174316406	-1204.839477539062	950.4358520507812	-505.2593994140625	-1286.684814453125	929.9395141601562	-536.1578979492188	-1276.447387695312	1096.088623046875	-559.3506469726562	-1209.918334960938	757.1572875976562	-479.8194274902344	-1262.402954101562	853.274169921875	-534.8410034179688	-1195.771606445312	859.4456787109375	-514.4332885742188	-1288.7822265625	1598.119018554688	-122.4763565063477	-1316.542114257812	1529.875	-56.79837036132812	-1355.88232421875	1237.629272460938	-23.50037956237793	-1360.227294921875	1233.489013671875	-120.6235809326172	-1229.193603515625	985.5650024414062	-22.42422485351562	-1305.551147460938	974.7218627929688	7.41348934173584	-1339.048583984375	1163.367919921875	-4.332999706268311	-1218.124145507812	789.3563232421875	-31.40003776550293	-1206.988891601562	875.5238647460938	-11.55795288085938	-1276.49267578125	873.5343017578125	17.86083030700684	-1272.682006835938	1783.411499023438	-234.8378143310547	-1113.25732421875	1823.822143554688	-381.55908203125	-1105.241821289062	1840.428100585938	-252.914306640625	-1287.755615234375	1770.827270507812	-368.5298461914062	-1278.699951171875	1046.512329101562	-454.3466186523438	-1294.910034179688	1022.059814453125	-89.58399963378906	-1202.44482421875	1094.046142578125	-129.3827209472656	-1176.6240234375	1103.681396484375	-393.4493408203125	-1087.319458007812	572.20458984375	-425.5187377929688	-1162.300903320312	705.1885375976562	-454.88818359375	-1180.200927734375	56.82481002807617	-440.7413024902344	-1177.649536132812	314.9625244140625	-458.8123168945312	-952.0215454101562	83.04225921630859	-406.5030212402344	-1025.102905273438	74.18233489990234	-363.4266662597656	-1059.26025390625	63.5511474609375	-473.7926635742188	-1243.083984375	51.83466339111328	-371.8888244628906	-1306.2822265625	528.6263427734375	-148.1985321044922	-1278.216918945312	806.9727172851562	-104.4111328125	-1438.473754882812	28.54219818115234	-208.8611297607422	-1341.130126953125	394.8309936523438	-148.6138610839844	-1201.83203125	43.50207138061523	-231.9226379394531	-1255.6826171875	31.99891090393066	-279.7030639648438	-1306.955200195312	40.4025764465332	-170.5632934570312	-1489.734130859375	33.21328735351562	-265.6523132324219	
437	4.36	-1404.99365234375	1125.093994140625	-220.7804870605469	-1387.881591796875	1132.246826171875	-354.7998657226562	-1401.439819335938	1172.423828125	-289.7494812011719	-1152.54248046875	1350.086181640625	-266.9049682617188	-1408.341674804688	1327.865112304688	-287.3507690429688	-1333.861083984375	1613.395751953125	-308.0599060058594	-1168.029541015625	1488.726440429688	-280.8786315917969	-1418.309448242188	1443.48095703125	-216.5093383789062	-1336.916748046875	1590.103515625	-409.0784912109375	-1248.44580078125	1561.982299804688	-469.5653991699219	-1278.3076171875	1432.006103515625	-536.8004760742188	-1287.498779296875	1213.329956054688	-557.015380859375	-1357.048461914062	1207.963012695312	-504.1078491210938	-1208.539916992188	950.6286010742188	-504.4730224609375	-1290.172241210938	929.9901733398438	-535.9452514648438	-1279.790893554688	1096.226928710938	-558.9985961914062	-1213.419921875	757.4003295898438	-478.6579895019531	-1265.922241210938	853.3358154296875	-534.2088623046875	-1199.340209960938	859.6510009765625	-513.4177856445312	-1293.102905273438	1598.3857421875	-121.9666366577148	-1321.125366210938	1530.17333984375	-56.39498138427734	-1361.251708984375	1238.153930664062	-23.1452693939209	-1365.26171875	1234.00244140625	-120.2887344360352	-1236.33251953125	985.2461547851562	-21.64258766174316	-1312.814453125	974.9683227539062	8.049299240112305	-1344.912719726562	1163.84619140625	-3.912662267684937	-1226.791381835938	788.9246826171875	-30.67425918579102	-1215.08349609375	874.9625244140625	-10.79616832733154	-1284.559326171875	873.550048828125	18.55147361755371	-1276.902465820312	1783.580810546875	-234.1279449462891	-1117.629272460938	1824.466674804688	-380.8490295410156	-1109.627807617188	1841.087646484375	-252.2021331787109	-1291.965087890625	1770.97998046875	-367.8014831542969	-1281.16552734375	1046.813354492188	-453.9411010742188	-1298.736572265625	1022.375	-89.25697326660156	-1206.081298828125	1094.461791992188	-128.5777587890625	-1179.53759765625	1104.107543945312	-392.5359497070312	-1089.435424804688	572.1889038085938	-424.2613220214844	-1163.71826171875	705.7699584960938	-453.4694519042969	-1193.679931640625	58.79815292358398	-443.16748046875	-1184.735717773438	316.6119079589844	-459.7646179199219	-965.33056640625	80.14472198486328	-406.4318237304688	-1039.02490234375	72.25325775146484	-364.2664489746094	-1072.286010742188	63.33031463623047	-475.0291748046875	-1257.338745117188	54.67286682128906	-375.0201110839844	-1308.354125976562	528.9196166992188	-147.789306640625	-1281.356567382812	807.3536987304688	-103.9769515991211	-1438.505493164062	28.45622634887695	-208.7894897460938	-1342.630737304688	395.0408935546875	-148.2746276855469	-1201.8955078125	43.53482055664062	-231.9060821533203	-1255.825317382812	32.04153823852539	-279.6751403808594	-1307.023071289062	40.38581085205078	-170.5156555175781	-1489.773559570312	33.10492706298828	-265.5862731933594	
438	4.37	-1408.370239257812	1125.152465820312	-220.9198455810547	-1390.83056640625	1132.322021484375	-354.89453125	-1404.690185546875	1172.509887695312	-289.8702392578125	-1156.127075195312	1350.448852539062	-266.0518493652344	-1411.736938476562	1327.901000976562	-287.3057250976562	-1337.63134765625	1613.571044921875	-307.7666931152344	-1171.768798828125	1489.061889648438	-280.0552673339844	-1422.181640625	1443.5791015625	-216.4969329833984	-1340.332641601562	1590.197265625	-408.7746276855469	-1251.690307617188	1562.056762695312	-468.9894104003906	-1281.375366210938	1432.069946289062	-536.285888671875	-1290.618408203125	1213.404296875	-556.6739501953125	-1360.488403320312	1208.103271484375	-504.1780700683594	-1212.139526367188	950.7357177734375	-503.6742858886719	-1293.567260742188	929.9974365234375	-535.7288208007812	-1283.002319335938	1096.300415039062	-558.6222534179688	-1216.906005859375	757.5376586914062	-477.68408203125	-1269.361083984375	853.35888671875	-533.6572265625	-1202.829711914062	859.7847290039062	-512.477294921875	-1297.399658203125	1598.581909179688	-121.49658203125	-1325.684814453125	1530.390991210938	-56.04961776733398	-1366.526733398438	1238.5859375	-22.87386894226074	-1370.1611328125	1234.412841796875	-120.0462112426758	-1243.2978515625	984.89013671875	-20.87372589111328	-1319.925659179688	975.156494140625	8.616782188415527	-1350.673828125	1164.239379882812	-3.573320388793945	-1235.218994140625	788.4591064453125	-29.87886047363281	-1223.008422851562	874.3784790039062	-9.988234519958496	-1292.443237304688	873.5346069335938	19.22426223754883	-1281.034423828125	1783.694702148438	-233.4299468994141	-1121.92041015625	1825.0458984375	-380.1745910644531	-1113.929077148438	1841.693115234375	-251.5226135253906	-1296.085205078125	1771.057250976562	-367.0853271484375	-1283.4638671875	1047.030151367188	-453.5863952636719	-1302.373901367188	1022.670532226562	-88.96218872070312	-1209.567749023438	1094.836669921875	-127.8578186035156	-1182.354858398438	1104.433349609375	-391.688720703125	-1091.607666015625	571.9829711914062	-423.0332336425781	-1165.175048828125	706.1727905273438	-452.1727294921875	-1207.031005859375	60.87514495849609	-445.9714965820312	-1191.716430664062	318.2160339355469	-460.9743957519531	-978.6944580078125	77.40968322753906	-406.4166259765625	-1053.043212890625	70.47006225585938	-365.2817993164062	-1085.175170898438	63.21503829956055	-476.4743347167969	-1271.560180664062	57.62624740600586	-378.6479797363281	-1310.434326171875	529.2025146484375	-147.3697662353516	-1284.369750976562	807.7280883789062	-103.5837783813477	-1438.534790039062	28.35637283325195	-208.7058258056641	-1344.16650390625	395.259033203125	-147.9072570800781	-1201.9599609375	43.573486328125	-231.8741302490234	-1255.986938476562	32.09980773925781	-279.6296691894531	-1307.091064453125	40.36431884765625	-170.4581604003906	-1489.820678710938	32.99599838256836	-265.521240234375	
